# xmcd CD database file
#
# Track frame offsets:
#	150
#	29823
#	59065
#	88065
#	118443
#	152235
#	185505
#	210725
#	236348
#	257730
#
# Disc length: 4007 seconds
#
# Revision: 0
# Processed by: cddbd v1.5.1PL0 Copyright (c) Steve Scherf et al.
# Submitted via: CDex 1.60beta1
#
DISCID=980fa50a
DTITLE=Various Artist - Classixx Mixx, Vol. 5
DYEAR=1900
DGENRE=Blues
TTITLE0=No Parking On The Dance Floor - Midnight Starr
TTITLE1=Too Tight -ConFunkShun
TTITLE2=Last Night A DJ Saved My Life -Indeep
TTITLE3=It Takes Two - Rob Base and DJ Easy Rock
TTITLE4=It's All The Way Live -Lakeside
TTITLE5=Say You Do - Janet Jackson
TTITLE6=Double Dutch Bus -Frankie Smith
TTITLE7=I Like What You're Doing To Me -Young and Company
TTITLE8=You Make Me Feel Brand New -Stylistics
TTITLE9=Studio West Classic Hi Energy Medley - Various Artists
EXTD=
EXTT0=
EXTT1=
EXTT2=
EXTT3=
EXTT4=
EXTT5=
EXTT6=
EXTT7=
EXTT8=
EXTT9=
PLAYORDER=
